<svg xmlns="http://www.w3.org/2000/svg" width="426" height="466" overflow="hidden"><defs><clipPath id="a"><path d="M-5149-1643h426v466h-426z"/></clipPath></defs><g fill-rule="evenodd" clip-path="url(#a)" transform="translate(5149 1643)"><path fill="#004EA2" d="m-5085.83-1642 118.8 1.3 30.53 32.52 30.41-32.52 118.92-1.3 63.17 100.28-60.23 266.44-96.99 98.28-55.28-56.33-55.39 56.33-96.88-98.28-60.23-266.44Z"/><path fill="#FFF" d="m-5077.11-1624 103.43 1.06 37.18 39.54 37.18-39.54 103.43-1.06 53.89 85.67-57.19 253.01-82.01 83.32-55.3-56.37-55.3 56.37-82.13-83.32-57.07-253.01Z"/><path fill="#004EA2" d="m-5067.58-1603 86.01.94 45.07 47.82 45.07-47.82 86.01-.94 43.42 68.78-53.92 238.15-65.13 66.07-55.45-56.42-55.45 56.42-65.25-66.07-53.8-238.15Z"/><path fill="#FFF100" d="M-4988-1506.78h39.37l12.19-41.22 12.19 41.22h39.25l-31.76 25.44 12.19 41.34-31.87-25.56-31.87 25.56 12.18-41.34ZM-4834-1466l-11.37 34.04-34.68 18.96-9.95-12.84 23.21-33.92Z"/><path d="M-4851.26-1447.52c.57 2.15.11 4.65-1.49 6.2-2.18 2.03-5.27 1.67-7.1-.72-1.72-2.38-1.49-5.96.57-7.98 1.6-1.55 3.89-1.79 5.61-.72l15.12-14.54 3.55-.72-1.26 3.93-15 14.55Z"/><path fill="#FABE00" d="m-4936-1488-13-18.5 13-41.5Z"/><path fill="#FABE00" d="m-4936-1488.22-19.9 7.22-32.1-26ZM-4936-1488v22.6l-32 25.4ZM-4936-1488l19.76 7.02L-4904-1440ZM-4936-1488l11.97-19h39.03ZM-5038-1468l29.57 4.12 103.43 105.34-5.77 7.54Z"/><path fill="#FFF100" d="m-5038-1468 8.94 31.34 112.3 93.66 5.76-7.57Z"/><path fill="#FABE00" d="m-4904.99-1345 10.99-14.42-6.01-5.58-10.99 14.42Z"/><path fill="#FABE00" d="m-4858.96-1302 5.96-7.97-46.04-43.03-5.96 7.85Z"/><path fill="#FFF100" d="m-4918.85-1327 13.85-18.3-6.15-5.7-13.85 18.3Z"/><path fill="#FFF100" d="m-4912.11-1335.83-.12.11c-2.71 3.48-2.24 8.59.94 11.49 3.18 2.9 8.01 2.44 10.6-1.05-2.71 3.49-2.24 8.59.94 11.49 3.18 2.9 8.01 2.44 10.6-1.04-2.71 3.48-2.24 8.58.94 11.48 3.18 2.9 8.01 2.44 10.6-1.04-2.59 3.48-2.24 8.59.94 11.49 3.18 2.9 8.01 2.43 10.72-1.05 0 0 .12-.11.12-.23l6.83-8.7-46.4-42.12-6.71 9.17Zm11.66 10.44c-.12 0-.12.11-.12.11s.12 0 .12-.11Zm11.65 10.56-.11.11s0-.11.11-.11Zm11.55 10.56c0 .11-.12.11-.12.11l.12-.11Z"/><path fill="#FABE00" d="m-4892.57-1429 14.57 19-131.01 116-9.99-13.1Z"/></g></svg>